<svg xmlns="http://www.w3.org/2000/svg" viewBox="0 0 1200 675" role="img" aria-labelledby="t d"><title id="t">AI-assisted gold market research</title><desc id="d">VenusRealm navy and gold visual showing AI-assisted synthesis for XAUUSD research with human review.</desc><defs><linearGradient id="bg" x1="0" y1="0" x2="1" y2="1"><stop stop-color="#07111f"/><stop offset="1" stop-color="#102943"/></linearGradient></defs><rect width="1200" height="675" fill="url(#bg)"/><g opacity=".18" stroke="#d6a63d"><path d="M680 160c120-100 270-40 330 70s-10 240-135 260-250-55-270-170 5-110 75-160z" fill="none"/><circle cx="795" cy="205" r="10" fill="#f1d58e"/><circle cx="900" cy="255" r="12" fill="#f1d58e"/><circle cx="970" cy="180" r="8" fill="#f1d58e"/><circle cx="830" cy="340" r="9" fill="#f1d58e"/><circle cx="1005" cy="330" r="11" fill="#f1d58e"/><path d="M795 205L900 255L970 180M900 255L830 340L1005 330L900 255"/></g><g transform="translate(635 245)"><rect width="420" height="240" rx="18" fill="#0c1b2e" stroke="#d6a63d"/><path d="M45 165 C105 130 145 155 190 112 S275 98 365 48" fill="none" stroke="#e7bd58" stroke-width="4"/><g fill="#d6a63d"><rect x="70" y="128" width="12" height="35"/><rect x="120" y="118" width="12" height="25"/><rect x="170" y="105" width="12" height="42"/><rect x="220" y="88" width="12" height="35"/><rect x="270" y="76" width="12" height="28"/><rect x="320" y="54" width="12" height="38"/></g><text x="35" y="40" fill="#f1d58e" font-family="Arial" font-size="18" letter-spacing="4">XAUUSD • AI-ASSISTED</text></g><g font-family="Arial,sans-serif"><text x="70" y="95" fill="#f1d58e" font-size="22" font-weight="700" letter-spacing="6">AI RESEARCH</text><text x="70" y="160" fill="#f7f2e8" font-size="47" font-weight="700">How AI Supports</text><text x="70" y="215" fill="#f1d58e" font-size="42" font-weight="700">Gold-Market Research</text><text x="70" y="272" fill="#aebbc7" font-size="24">Assisted synthesis • explicit uncertainty • editorial review</text><text x="735" y="540" fill="#aebbc7" font-size="15" letter-spacing="4">DATA → SYNTHESIS → RISK → HUMAN REVIEW</text></g><g transform="translate(80 470)"><rect width="330" height="110" rx="20" fill="#0d1d31" stroke="#d6a63d"/><text x="26" y="42" fill="#f1d58e" font-family="Arial" font-size="18" letter-spacing="3">VENUSREALM</text><text x="26" y="76" fill="#e9edf2" font-family="Arial" font-size="17">Better research • Brighter perspective</text></g></svg>